Coordinates
version=1
nRows=14
nColumns=36
inDegrees=yes

Units are S.I. units (second, meters, Newtons, ...)
If the header above contains a line with 'inDegrees', this indicates whether rotational values are in degrees (yes) or radians (no).

endheader
time	pelvis_tilt	pelvis_list	pelvis_rotation	pelvis_tx	pelvis_ty	pelvis_tz	hip_flexion_r	hip_adduction_r	hip_rotation_r	knee_angle_r	knee_angle_r_beta	ankle_angle_r	subtalar_angle_r	mtp_angle_r	hip_flexion_l	hip_adduction_l	hip_rotation_l	knee_angle_l	knee_angle_l_beta	ankle_angle_l	subtalar_angle_l	mtp_angle_l	lumbar_extension	lumbar_bending	lumbar_rotation	arm_flex_r	arm_add_r	arm_rot_r	elbow_flex_r	pro_sup_r	arm_flex_l	arm_add_l	arm_rot_l	elbow_flex_l	pro_sup_l
      2.97500000	    -39.98183880	     -0.36977701	     -3.41492235	      0.11733215	      0.62222742	     -0.10570506	    103.98562147	     -7.38277813	      4.69350968	     96.52020201	      1.68459532	     35.10033123	     -7.28710718	     -7.49999987	    101.81145224	     -6.93742817	      7.48033287	    104.64243124	      1.82635496	     40.77063695	      0.52705126	     -7.49999987	    -28.22339027	      0.01545235	     -1.69556813	     75.50648569	    -14.10237616	     18.89065578	    102.12232266	     97.66744204	     81.54528532	     -7.40846775	     29.22343175	     90.44300068	     86.55548630
      2.97916670	    -39.81289477	     -0.15066234	     -3.47593884	      0.11752352	      0.62639384	     -0.10852428	    103.44770087	     -7.35737108	      4.89911137	     95.90256205	      1.67381547	     34.87858042	     -7.30974199	     -7.49999987	    101.22199919	     -6.87931433	      7.14392095	    104.20534616	      1.81872639	     40.56044478	      0.39566163	     -7.49999987	    -28.23062369	      0.00391678	     -1.76279658	     75.37286568	    -13.98752848	     18.63699116	    100.16988365	     96.28805675	     80.56140890	     -7.00522310	     28.44359781	     88.77269097	     84.68394628
      2.98333330	    -39.52614202	      0.00499854	     -3.60332431	      0.11931259	      0.63049573	     -0.11066406	    102.67485263	     -7.31922797	      5.05824632	     95.22886249	      1.66205719	     34.60648734	     -7.34992917	     -7.49999987	    100.51197510	     -6.79454197	      6.81097595	    103.85416598	      1.81259714	     40.28701470	     -0.05227182	     -7.49999987	    -28.52873413	      0.02274307	     -1.72862130	     75.25775316	    -13.94832433	     18.43944548	     98.63634909	     94.87646513	     79.81577043	     -6.89880483	     28.23879970	     87.62826241	     83.32872878
      2.98750000	    -39.27464616	      0.16321686	     -3.68104134	      0.12170583	      0.63560634	     -0.11053630	    101.81563153	     -7.33048073	      5.20674441	     94.48628074	      1.64909670	     34.34380895	     -7.33398674	     -7.49999987	     99.65048771	     -6.67475232	      6.50444392	    103.30985507	      1.80309712	     40.10403197	     -0.39880944	     -7.49999987	    -28.78717640	     -0.00841008	     -1.70024684	     75.06312371	    -13.83697160	     18.26293531	     96.98527860	     93.32456726	     79.01776779	     -6.83209997	     27.97715989	     86.40319312	     81.86164455
      2.99166670	    -39.03706977	      0.35242951	     -3.86008908	      0.12409676	      0.64071271	     -0.11007342	    100.97995988	     -7.18181484	      5.34877251	     93.82576519	      1.63756853	     34.53099832	     -6.97349239	     -7.49999987	     98.69069223	     -6.79853624	      6.20147257	    102.66932403	      1.79191775	     39.87887897	     -0.08153129	     -7.49999987	    -28.93792341	     -0.03132957	     -1.43056466	     74.90973320	    -13.70059012	     18.19515099	     94.77416413	     92.71298767	     78.00636396	     -6.25786693	     26.70035874	     84.09974924	     80.08757671
      2.99583330	    -38.76181221	      0.45841880	     -3.95816872	      0.12858614	      0.64721846	     -0.10936005	     99.85950134	     -7.05232201	      5.41356623	     92.96922213	      1.62261903	     34.30917426	     -7.10999695	     -7.49999987	     97.45770786	     -6.85310348	      6.00776435	    101.71038884	      1.77518117	     39.60861564	     -0.50266023	     -7.49999987	    -29.29769825	     -0.04462287	     -1.29106476	     74.37161591	    -13.44507206	     18.14390018	     93.27599903	     91.06672024	     77.02388442	     -6.26470182	     26.58012039	     83.03126020	     78.66741347
      3.00000000	    -38.36319931	      0.61134985	     -4.06917544	      0.12931086	      0.65248239	     -0.10677178	     98.84122096	     -6.77450204	      5.46747170	     92.36052200	      1.61199521	     34.35806653	     -7.41532810	     -7.49999987	     96.15129466	     -7.08506433	      5.83781828	    100.74696144	      1.75836619	     39.41508785	     -0.32807839	     -7.49999987	    -29.73762809	     -0.16671581	     -1.06436151	     73.67413743	    -13.10009035	     18.41501865	     92.09255212	     90.07885061	     76.05963298	     -6.37090562	     26.55644320	     81.66686234	     77.65970248
      3.00416670	    -37.65378034	      0.72308514	     -4.14068313	      0.13447656	      0.65602005	     -0.10846317	     97.61854534	     -6.65130244	      5.54812647	     92.03720199	      1.60635221	     34.12708477	     -7.64662495	     -7.49999987	     94.63581874	     -7.24059841	      5.61307177	    100.15078001	      1.74796086	     39.60425350	     -0.12960480	     -7.49999987	    -30.21441879	     -0.25187727	     -0.81324038	     73.01066319	    -12.80692098	     18.92519972	     89.89449168	     90.53212209	     75.31951538	     -6.05943373	     26.24710876	     78.73835536	     76.98752657
      3.00833330	    -37.29504184	      0.84094717	     -4.14297905	      0.13602609	      0.66154151	     -0.10654299	     96.69327782	     -6.51192800	      5.70530684	     91.51534208	      1.59724404	     34.05059900	     -7.66335230	     -7.49999987	     93.48299526	     -7.34372674	      5.44219969	     99.37735249	      1.73446200	     39.63185092	     -0.23193408	     -7.49999987	    -30.58109219	     -0.29923420	     -0.60373821	     72.10647782	    -12.68617451	     19.15334006	     88.87522536	     89.37837206	     74.14734198	     -6.46239215	     26.18408950	     77.73968598	     75.86986358
      3.01250000	    -36.79199360	      1.08755320	     -4.20863550	      0.14011891	      0.66642332	     -0.10889534	     95.69704110	     -6.51992617	      5.93825718	     91.03056574	      1.58878309	     33.91761633	     -7.53036484	     -7.49999987	     92.19958848	     -7.37571863	      5.00520214	     98.69720578	      1.72259120	     39.74940267	     -0.18417619	     -7.49999987	    -30.93355024	     -0.36054641	     -0.39649660	     71.29512203	    -12.73241607	     19.45018849	     87.23021126	     92.35446524	     73.32738683	     -6.58866395	     26.43018083	     75.38800561	     68.61016673
      3.01666670	    -36.38569596	      1.34817959	     -4.26023590	      0.14023704	      0.67075183	     -0.10914780	     94.85697895	     -6.53211762	      6.24383050	     90.50494323	      1.57960925	     33.63584881	     -7.74432065	     -7.49999987	     91.04466086	     -7.37977437	      4.39706378	     97.95205013	      1.70958578	     39.94050809	     -0.37590068	     -7.49999987	    -31.38485761	     -0.44040575	     -0.48402874	     70.66657543	    -12.65280859	     19.70834580	     85.85957965	     90.90933820	     72.37116170	     -6.88059523	     25.92217850	     73.82401606	     67.82984989
      3.02083330	    -35.85180147	      1.57132172	     -4.32790539	      0.14268241	      0.67534720	     -0.11165873	     93.85971061	     -6.64096845	      6.56412682	     89.90227714	      1.56909074	     33.36302093	     -7.85497348	     -7.49999987	     89.90485857	     -7.28532062	      3.83640544	     97.33499747	      1.69881618	     39.85024023	     -0.74128753	     -7.49999987	    -31.87290612	     -0.43676308	     -0.35849591	     70.05771564	    -12.89042676	     20.06364356	     84.34532154	     89.80401322	     71.31479143	     -6.83122286	     25.18542831	     72.04450494	     67.10038940
      3.02500000	    -35.38796797	      1.69181463	     -4.31264392	      0.14299816	      0.68069954	     -0.11028956	     92.90824940	     -6.62441950	      6.83422915	     89.29551457	      1.55850074	     32.93947788	     -8.35825624	     -7.49999987	     88.96146723	     -7.16294013	      3.57497527	     96.77730241	      1.68908257	     39.60258003	     -0.81353510	     -7.49999987	    -32.39069004	     -0.45940386	     -0.33954820	     69.52307715	    -13.00550836	     20.18980332	     82.91848925	     88.87774192	     70.47922461	     -6.73213807	     24.48615731	     70.46807204	     66.41399124
      3.02916670	    -35.17676684	      1.77598876	     -4.25242252	      0.14191519	      0.68484466	     -0.10880979	     92.20726785	     -6.53327031	      7.01271889	     88.52328019	      1.54502270	     32.81192819	     -8.44929777	     -7.49999987	     88.32678056	     -7.13575893	      3.38931124	     96.07561385	      1.67683579	     39.38379083	     -0.79339905	     -7.49999987	    -32.90016523	     -0.48389414	     -0.31266630	     69.05476730	    -13.25253556	     20.07715437	     82.12295197	     88.01866895	     69.77567948	     -7.12911733	     24.15348174	     69.88713978	     66.03927998
